<svg id="Layer_1" height="512" viewBox="0 0 512 512" width="512" xmlns="http://www.w3.org/2000/svg" data-name="Layer 1"><path d="m403.19 347.32h-63.4c0-24.86-4.06-48.49-11.96-69.61a145.591 145.591 0 0 0 27.28-19.92h18v.19a147.015 147.015 0 0 1 30.08 89.34z" fill="#546ac7"/><path d="m339.79 347.32h63.4a147.078 147.078 0 0 1 -38.43 99.35 146.2 146.2 0 0 0 -36.93-29.74c7.89-21.12 11.96-44.75 11.96-69.61z" fill="#a2c6f8"/><path d="m364.76 446.67a147.223 147.223 0 0 1 -105.43 48.28c32.38-15.53 55.57-43.41 68.5-78.02a146.2 146.2 0 0 1 36.93 29.74z" fill="#546ac7"/><path d="m339.79 347.32h-84.29v-50.72a146.335 146.335 0 0 0 72.33-18.89c7.9 21.12 11.96 44.75 11.96 69.61z" fill="#a2c6f8"/><path d="m255.5 347.32h84.29c0 24.86-4.07 48.49-11.96 69.61a146.441 146.441 0 0 0 -72.33-18.89z" fill="#546ac7"/><path d="m327.83 416.93c-12.93 34.61-36.12 62.49-68.5 78.02-1.27.03-2.55.05-3.83.05v-96.96a146.441 146.441 0 0 1 72.33 18.89z" fill="#a2c6f8"/><path d="m255.5 481.57v13.43c-1.28 0-2.56-.02-3.83-.05-32.45-15.56-55.67-43.52-68.58-78.23a148.708 148.708 0 0 1 72.41-18.68z" fill="#546ac7"/><path d="m255.5 347.32v50.72a148.708 148.708 0 0 0 -72.41 18.68c-7.84-21.07-11.88-44.62-11.88-69.4z" fill="#a2c6f8"/><path d="m255.5 296.6v50.72h-84.29c0-24.78 4.04-48.33 11.88-69.4a148.68 148.68 0 0 0 72.41 18.68z" fill="#546ac7"/><path d="m183.09 416.72c12.91 34.71 36.13 62.67 68.58 78.23a147.29 147.29 0 0 1 -105.81-48.69 145.335 145.335 0 0 1 37.23-29.54z" fill="#a2c6f8"/><path d="m183.09 277.92c-7.84 21.07-11.88 44.62-11.88 69.4h-63.41a147.026 147.026 0 0 1 30.01-89.24v-.29h17.58v.19a145.827 145.827 0 0 0 27.7 19.94z" fill="#a2c6f8"/><path d="m171.21 347.32c0 24.78 4.04 48.33 11.88 69.4a145.335 145.335 0 0 0 -37.23 29.54 147.067 147.067 0 0 1 -38.06-98.94z" fill="#546ac7"/><path d="m422.13 54.44h-332.26a12.037 12.037 0 0 0 -12.03 12.04v179.27a12.037 12.037 0 0 0 12.03 12.04h332.26a12.037 12.037 0 0 0 12.03-12.04v-179.27a12.037 12.037 0 0 0 -12.03-12.04z" fill="#f09b57"/><path d="m236 233h41v25h-41z" fill="#ce7a41"/><path d="m402.48 17h-103.59a25.03 25.03 0 0 0 -8.48 1.49l-26.43 9.61a24.728 24.728 0 0 1 -8.48 1.5v208.7a24.728 24.728 0 0 0 8.48-1.5l11.15-4.05 15.28-5.55a24.8 24.8 0 0 1 8.48-1.5h103.59a12.037 12.037 0 0 0 12.04-12.03v-184.63a12.039 12.039 0 0 0 -12.04-12.04z" fill="#eed0be"/><path d="m247.01 28.1-26.42-9.61a25.044 25.044 0 0 0 -8.49-1.49h-103.58a12.039 12.039 0 0 0 -12.04 12.04v184.63a12.037 12.037 0 0 0 12.04 12.03h103.58a24.812 24.812 0 0 1 8.49 1.5l15.27 5.55 11.15 4.05a24.742 24.742 0 0 0 8.49 1.5v-208.7a24.742 24.742 0 0 1 -8.49-1.5z" fill="#f4dace"/><path d="m318.87 257.83a162.442 162.442 0 0 1 8.96 19.88 146.335 146.335 0 0 1 -72.33 18.89v-42.28a54.4 54.4 0 0 1 19.11 3.47h44.26z" fill="#546ac7"/><path d="m255.5 254.32v42.28a148.68 148.68 0 0 1 -72.41-18.68 160.793 160.793 0 0 1 9.04-20.1v-.03h44.26a54.4 54.4 0 0 1 19.11-3.47z" fill="#a2c6f8"/><path d="m318.95 257.79h36.16a145.591 145.591 0 0 1 -27.28 19.92 162.442 162.442 0 0 0 -8.96-19.88v-.04z" fill="#a2c6f8"/><path d="m192.13 257.79v.03a160.793 160.793 0 0 0 -9.04 20.1 145.827 145.827 0 0 1 -27.7-19.94v-.19z" fill="#546ac7"/><path d="m126 213.67v-184.63c0-6.65 5.87-12.04 12.52-12.04h-30c-6.65 0-12.52 5.39-12.52 12.04v184.63a12.715 12.715 0 0 0 12.52 12.33h30a12.715 12.715 0 0 1 -12.52-12.33z" fill="#ddc4ba"/><g fill="#264060"><path d="m226.2 87h-4a6 6 0 0 0 0 12h4a6 6 0 0 0 0-12z"/><path d="m186.4 93a6 6 0 0 0 6 6h9.914a6 6 0 0 0 0-12h-9.914a6 6 0 0 0 -6 6z"/><path d="m123.3 99h46.591a6 6 0 0 0 0-12h-46.591a6 6 0 0 0 0 12z"/><path d="m207.105 69h19.095a6 6 0 0 0 0-12h-19.09a6 6 0 0 0 0 12z"/><path d="m153.129 69h31.08a6 6 0 0 0 0-12h-31.08a6 6 0 0 0 0 12z"/><path d="m123.3 69h9.324a6 6 0 0 0 0-12h-9.324a6 6 0 0 0 0 12z"/><path d="m226.2 118h-63.566a6 6 0 0 0 0 12h63.566a6 6 0 0 0 0-12z"/><path d="m226.2 148h-14.079a6 6 0 1 0 0 12h14.079a6 6 0 0 0 0-12z"/><path d="m196.229 154a6 6 0 0 0 -6-6h-36.1a6 6 0 0 0 0 12h36.1a6 6 0 0 0 6-6z"/><path d="m123.3 160h9.324a6 6 0 1 0 0-12h-9.324a6 6 0 0 0 0 12z"/><path d="m123.3 129h16.5a6 6 0 0 0 0-12h-16.5a6 6 0 0 0 0 12z"/><path d="m226.2 177h-4a6 6 0 0 0 0 12h4a6 6 0 0 0 0-12z"/><path d="m202.315 177h-9.915a6 6 0 0 0 0 12h9.914a6 6 0 0 0 0-12z"/><path d="m175.886 183a6 6 0 0 0 -6-6h-46.586a6 6 0 0 0 0 12h46.591a6 6 0 0 0 5.995-6z"/><path d="m387.7 147h-3.993a6 6 0 0 0 0 12h3.993a6 6 0 0 0 0-12z"/><path d="m369.822 153a6 6 0 0 0 -6-6h-9.914a6 6 0 0 0 0 12h9.914a6 6 0 0 0 6-6z"/><path d="m284.8 159h50.6a6 6 0 0 0 0-12h-50.6a6 6 0 0 0 0 12z"/><path d="m387.7 177h-19.09a6 6 0 0 0 0 12h19.09a6 6 0 0 0 0-12z"/><path d="m345.716 177h-31.08a6 6 0 0 0 0 12h31.08a6 6 0 0 0 0-12z"/><path d="m284.8 189h9.324a6 6 0 0 0 0-12h-9.324a6 6 0 0 0 0 12z"/><path d="m387.7 117h-63.559a6 6 0 0 0 0 12h63.559a6 6 0 0 0 0-12z"/><path d="m367.628 92a6 6 0 0 0 6 6h14.072a6 6 0 0 0 0-12h-14.072a6 6 0 0 0 -6 6z"/><path d="m357.735 92a6 6 0 0 0 -6-6h-36.1a6 6 0 0 0 0 12h36.1a6 6 0 0 0 6-6z"/><path d="m284.8 98h9.324a6 6 0 0 0 0-12h-9.324a6 6 0 0 0 0 12z"/><path d="m284.8 129h16.5a6 6 0 0 0 0-12h-16.5a6 6 0 0 0 0 12z"/><path d="m383.709 69h3.991a6 6 0 0 0 0-12h-3.993a6 6 0 0 0 0 12z"/><path d="m353.908 69h9.914a6 6 0 0 0 0-12h-9.914a6 6 0 0 0 0 12z"/><path d="m284.8 69h50.6a6 6 0 0 0 0-12h-50.6a6 6 0 0 0 0 12z"/><path d="m84.917 338.616c.172.014.342.022.511.022a6 6 0 0 0 5.971-5.5c.222-2.628.509-5.279.855-7.878a6 6 0 0 0 -11.9-1.579c-.37 2.788-.677 5.631-.915 8.449a6 6 0 0 0 5.478 6.486z"/><path d="m153.226 476.311a164.826 164.826 0 0 1 -62.177-119.973 6 6 0 0 0 -11.983.65 176.837 176.837 0 0 0 66.695 128.718 6 6 0 1 0 7.465-9.4z"/><path d="m422.126 48h-1.126v-18.963c0-9.946-8.575-18.037-18.521-18.037h-103.586a30.75 30.75 0 0 0 -10.535 1.856l-26.425 9.608a18.86 18.86 0 0 1 -12.87 0l-26.424-9.609a30.773 30.773 0 0 0 -10.539-1.855h-103.581c-9.947 0-18.519 8.091-18.519 18.037v18.963h-.126c-9.945 0-17.874 8.53-17.874 18.475v179.275a18.1 18.1 0 0 0 17.874 18.25h36.407a152.324 152.324 0 0 0 -24.476 83.281c0 84.739 68.946 153.7 153.693 153.7s153.694-68.93 153.694-153.669a152.452 152.452 0 0 0 -24.472-83.312h37.406a18.1 18.1 0 0 0 17.874-18.25v-179.275c0-9.945-7.929-18.475-17.874-18.475zm-161.126-13a22.641 22.641 0 0 0 4.784-1.258l26.55-9.608a19.482 19.482 0 0 1 6.559-1.134h103.586c3.329 0 6.521 2.708 6.521 6.037v184.629a6.735 6.735 0 0 1 -6.521 6.334h-103.586a30.621 30.621 0 0 0 -10.536 1.707l-26.672 9.533c-.144.053.315.014-.685.063zm72.7 306h-72.7v-38.522a150.7 150.7 0 0 0 63.21-16.341 196.07 196.07 0 0 1 9.495 54.863zm-5.1-77h9.42q-3.556 2.577-7.251 4.92c-.689-1.66-1.416-3.295-2.16-4.92zm5.1 89a193.1 193.1 0 0 1 -9.47 55.274 150.813 150.813 0 0 0 -63.23-16.104v-39.17zm-72.7-62.528v-29.68a48.786 48.786 0 0 1 11.5 2.773 6.072 6.072 0 0 0 2.106.435h40.666c1.716 3.547 3.236 7.2 4.77 10.938a140.771 140.771 0 0 1 -59.042 15.534zm-170.75-38.472a6.268 6.268 0 0 1 -6.25-6.25v-179.75a6 6 0 0 1 6-6v153.666a18.388 18.388 0 0 0 18.334 18.334h11.666a6 6 0 0 0 0-12h-11.481a6.538 6.538 0 0 1 -6.519-6.519v-184.444a6.037 6.037 0 0 1 6.037-6.037h104.063a18.782 18.782 0 0 1 6.435 1.133l26.175 9.608c1.49.539 3.29.959 4.29 1.259v196.3c0-.049-.042-.085-.185-.136l-26.3-9.46a29.912 29.912 0 0 0 -10.415-1.704h-50.1a6 6 0 0 0 0 12h50.1a19.076 19.076 0 0 1 6.511.984l11.389 3.963v15.053zm92.1 12c-.785 1.726-1.552 3.464-2.291 5.228q-3.981-2.478-7.8-5.228zm-41.55 0h12.325a152.731 152.731 0 0 0 22.645 16.482 207.233 207.233 0 0 0 -10.479 60.518h-51.361a139.635 139.635 0 0 1 26.87-77zm5.315 173.119a140.963 140.963 0 0 1 -32.175-84.119h51.351a204.323 204.323 0 0 0 10.422 60.819 151.389 151.389 0 0 0 -29.601 23.3zm8.037 9.1a138.8 138.8 0 0 1 25.883-20.737c10.3 24.536 25.7 45.127 45.375 60.287a141.635 141.635 0 0 1 -71.261-39.545zm94.848 40.897c-26-14.182-46.691-37.743-58.914-67.581a146.319 146.319 0 0 1 58.914-15.359zm0-94.949a154.659 154.659 0 0 0 -62.814 15.869c-5.472-16.767-8.368-35.036-8.9-55.036h71.714zm0-51.167h-71.709c.532-19 3.409-37.7 8.929-54.646a154.442 154.442 0 0 0 62.78 16.126zm0-50.526a144.626 144.626 0 0 1 -58.638-15.32c1.56-3.818 3.324-7.539 5.178-11.154h40.846a6.12 6.12 0 0 0 2.106-.489 48.041 48.041 0 0 1 10.508-2.633zm-7-40.574v-8.59l3.041 1.134a30.513 30.513 0 0 0 20.937 0l3.022-1.134v8.59a59.083 59.083 0 0 0 -27 0zm19 154.283a140.076 140.076 0 0 1 58.817 15.6c-12.232 29.717-31.817 53.19-58.817 67.334zm24.59 81.6c19.589-15.1 34.944-35.577 45.24-59.975a139.391 139.391 0 0 1 25.648 20.8 141.631 141.631 0 0 1 -70.888 39.166zm78.955-48.329a151.025 151.025 0 0 0 -29.363-23.235 205.413 205.413 0 0 0 10.523-61.219h51.352a141.2 141.2 0 0 1 -32.512 84.445zm32.522-96.454h-51.362a207.705 207.705 0 0 0 -10.579-60.8 152.008 152.008 0 0 0 21.956-16.2h13.118a139.725 139.725 0 0 1 26.867 77zm30.933-95.25a6.094 6.094 0 0 1 -5.874 6.25h-141.126v-15.053l11.383-3.962a19.047 19.047 0 0 1 6.51-.985h103.586c9.946 0 18.521-8.389 18.521-18.334v-153.666h1.126c3.329 0 5.874 3.146 5.874 6.475z"/></g></svg>